# xmcd
#
# Track frame offsets: 
#        150
#        22162
#        38107
#        67459
#        90409
#        110453
#        123610
#        139892
#        160537
#        189299
#        210971
#        233196
#        252615
#        269072
#        284772
#        303729
#        320449
#
# Disc length: 4558 seconds
#
# Revision: 18
# Processed by: cddbd v1.5.2PL0 Copyright (c) Steve Scherf et al.
# Submitted via: ExactAudioCopyFreeDBPlugin 1.0
#
DISCID=0811cc11
DTITLE=The Eagles - The Very Best Of The Eagles
DYEAR=2001
DGENRE=Rock
TTITLE0=One Of These Nights
TTITLE1=Take It Easy
TTITLE2=Hotel California
TTITLE3=New Kid In Town
TTITLE4=Heartache Tonight
TTITLE5=Tequila Sunrise
TTITLE6=Desperado
TTITLE7=Best Of My Love
TTITLE8=Lyin' Eyes
TTITLE9=Take It To The Limit
TTITLE10=I Can't Tell You Why
TTITLE11=Peaceful Easy Feeling
TTITLE12=James Dean
TTITLE13=Doolin-Dalton
TTITLE14=Witchy Woman
TTITLE15=The Long Run
TTITLE16=Life In The Fast Lane
EXTD=YEAR: 2001
EXTT0=
EXTT1=
EXTT2=
EXTT3=
EXTT4=
EXTT5=
EXTT6=
EXTT7=
EXTT8=
EXTT9=
EXTT10=
EXTT11=
EXTT12=
EXTT13=
EXTT14=
EXTT15=
EXTT16=
PLAYORDER=
